<svg t="1581140109841" class="icon" viewBox="0 0 1024 1024" version="1.1" xmlns="http://www.w3.org/2000/svg" p-id="5769" width="200" height="200"><path d="M453.12 69.632c-119.296 19.456-218.624 76.288-290.816 166.4-40.448 50.176-67.584 104.96-83.968 168.448-11.264 43.52-12.288 56.32-10.24 122.88 2.56 81.92 10.752 116.224 42.496 180.224 45.056 91.648 127.488 171.008 220.16 211.968 83.456 36.864 199.168 46.08 291.328 23.552 125.952-31.232 234.496-120.32 291.84-238.592 34.816-71.68 45.056-123.392 41.984-207.872-3.072-80.384-10.752-112.128-41.984-177.152-56.32-116.736-164.864-206.336-289.28-238.08-42.496-10.752-136.704-16.896-171.52-11.776z m152.576 73.216c133.632 34.304 232.96 130.56 275.456 266.752 17.408 55.296 17.408 150.016 0 204.8-38.912 124.928-124.928 215.552-247.296 260.096-34.816 12.8-43.008 13.824-121.856 13.824s-87.04-1.024-122.368-13.824c-99.328-36.352-176.64-104.96-220.672-195.584-54.784-113.152-54.784-220.672 0-333.312 49.152-101.888 135.68-172.544 248.32-202.24 50.176-13.312 136.704-13.312 188.416-0.512z" p-id="5770"></path><path d="M492.544 264.192c-11.264 7.68-11.264 10.24-11.264 112.64V481.28H377.344c-94.72 0-104.96 1.024-112.64 9.216-10.752 11.776-11.264 26.112-0.512 40.96 7.68 11.264 10.24 11.264 112.128 11.264h104.96l1.024 105.984 1.536 105.984 14.336 8.192c12.288 6.656 15.36 6.656 28.16 0l13.824-8.192 1.536-105.984 1.024-105.984 105.984-1.024 105.984-1.536 8.192-14.336c6.656-12.288 6.656-15.36 0-28.16l-8.192-13.824-105.984-1.536-105.984-1.024V376.32c0-101.888 0-104.448-11.264-112.128C525.312 259.584 516.608 256 512 256c-4.608 0-13.312 3.584-19.456 8.192z" p-id="5771"></path></svg>